M48
;GenerationSoftware,Autodesk,EAGLE,9.6.2*%
;CreationDate,2023-04-07T19:10:59Z*%
FMAT,2
ICI,OFF
INCH,TZ,00.0000
T5C0.0276
T4C0.0320
T3C0.0400
T2C0.1180
T1C0.1220
%
G90
M72
T1
X16142Y5512
X16142Y18110
X2362Y16535
X2756Y7087
T2
X12591Y4319
X11409Y2469
X13772Y2469
T3
X16102Y7346
X16102Y8346
X16102Y9346
X16102Y10346
X16102Y11346
X16102Y12346
X16102Y13346
X2539Y9543
X16102Y14346
X16102Y15346
X2539Y14543
X2539Y13543
X2539Y12543
X2539Y11543
X2539Y10543
X16102Y16346
X2362Y22472
X2362Y21472
X2362Y20472
X2362Y19472
X2362Y18472
X15965Y19551
X15965Y20551
X15965Y21551
X15965Y22551
X10249Y6295
X7689Y6295
X10249Y8075
X7689Y8075
X14173Y9268
X2969Y2150
X2969Y3150
X2969Y4150
X14173Y7268
X14173Y8268
T4
X4957Y15827
X3957Y15827
X5413Y8346
X4413Y8346
X11602Y8547
X11602Y5547
X3516Y17531
X6516Y17531
X6539Y5894
X6539Y8894
X5807Y1327
X5807Y2327
X5610Y3909
X5610Y4909
X10350Y9606
X10350Y10606
X10350Y11606
X10350Y12606
X10350Y13606
X10350Y14606
X10350Y15606
X10350Y16606
X10350Y17606
X10350Y18606
X10350Y19606
X10350Y20606
X10350Y21606
X13835Y17075
X7350Y22606
X7350Y21606
X7350Y20606
X7350Y19606
X7350Y18606
X7350Y17606
X7350Y16606
X7350Y15606
X7350Y14606
X7350Y13606
X10350Y22606
X7350Y11606
X7350Y10606
X7350Y9606
X14835Y17075
X13803Y19043
X11504Y9594
X12504Y9594
X14803Y19043
X7350Y12606
T5
X12106Y19087
X12106Y17087
M30